<svg xmlns="http://www.w3.org/2000/svg" viewBox="0 0 32 32" width="32" height="32">
  <!-- 360 arc circle -->
  <circle cx="16" cy="16" r="13.5" fill="none" stroke="#D6006E" stroke-width="2.5" stroke-dasharray="78 7" stroke-linecap="round"/>
  <!-- T letter -->
  <path d="M8 10h10v2.5h-3.5V22h-3V12.5H8z" fill="#D6006E"/>
  <!-- S letter -->
  <path d="M18 12.5c0-1.4 1.1-2.5 2.5-2.5H23c1.4 0 2.5 1.1 2.5 2.5v1.5h-2.5v-1h-2v2h2c1.4 0 2.5 1.1 2.5 2.5v2c0 1.4-1.1 2.5-2.5 2.5H20.5c-1.4 0-2.5-1.1-2.5-2.5V18h2.5v1.5h2v-2h-2C19.1 17.5 18 16.4 18 15v-2.5z" fill="#D6006E"/>
</svg>